<svg id="f832c553-1cc4-4c01-a03d-0d0f9443806a" data-name="图层 1" xmlns="http://www.w3.org/2000/svg" viewBox="0 0 380 280"><defs><style>.a6d0ac27-1509-4e96-9c1e-0f7805ad9225{fill:#008cd6;}</style></defs><title>Silky确认定稿</title><path class="a6d0ac27-1509-4e96-9c1e-0f7805ad9225" d="M149.45,164.12c-9.58,0-16.95-5.24-16.95-13.72h8.4c.35,3.93,3.11,7.1,8.55,7.1s8.62-3,8.62-7c0-11.58-25.44-4.07-25.44-21.71,0-8.41,6.69-13.65,16.48-13.65,9.16,0,15.64,4.83,16.33,13h-8.68c-.28-3.24-3.1-6.21-8.07-6.34-4.55-.14-8.06,2.06-8.06,6.68,0,10.82,25.36,4.07,25.36,21.58C166,157.22,160.13,164.12,149.45,164.12Z"/><path class="a6d0ac27-1509-4e96-9c1e-0f7805ad9225" d="M181,115.59a5,5,0,1,1,5,5A5,5,0,0,1,181,115.59Zm1,10.07h7.86v38H182Z"/><path class="a6d0ac27-1509-4e96-9c1e-0f7805ad9225" d="M207.14,112.63H215v51h-7.86Z"/><path class="a6d0ac27-1509-4e96-9c1e-0f7805ad9225" d="M232.28,112.63h7.85v29.64l13.79-16.61h10.89l-17.51,19,17.51,18.95H254.2L240.13,147.3v16.33h-7.85Z"/><path class="a6d0ac27-1509-4e96-9c1e-0f7805ad9225" d="M306.2,125.66h8.13L291,181.48H282.9L290.62,163l-15-37.35h8.76L295.1,154.6Z"/><path class="a6d0ac27-1509-4e96-9c1e-0f7805ad9225" d="M151.7,186.19a48.23,48.23,0,0,1-44.14-67.61,48.19,48.19,0,0,1,63.51-24.7,49,49,0,0,1,7.77,4.3,3.76,3.76,0,0,1-4.23,6.21,41.48,41.48,0,0,0-6.56-3.63,40.67,40.67,0,1,0,6.17,71.07,3.76,3.76,0,0,1,4.16,6.26A48.11,48.11,0,0,1,151.7,186.19Z"/><path class="a6d0ac27-1509-4e96-9c1e-0f7805ad9225" d="M99.55,108a3.75,3.75,0,0,1-3.15-5.79,65.91,65.91,0,0,1,75-27,3.76,3.76,0,0,1-2.26,7.17,58.38,58.38,0,0,0-66.41,24A3.74,3.74,0,0,1,99.55,108Z"/><path class="a6d0ac27-1509-4e96-9c1e-0f7805ad9225" d="M151.63,203.82A65.87,65.87,0,0,1,86.5,147.3a3.75,3.75,0,1,1,7.43-1.07,58.34,58.34,0,0,0,67.64,49.22,3.76,3.76,0,0,1,1.28,7.41A66.32,66.32,0,0,1,151.63,203.82Z"/><circle class="a6d0ac27-1509-4e96-9c1e-0f7805ad9225" cx="182.79" cy="83.36" r="5.43"/><circle class="a6d0ac27-1509-4e96-9c1e-0f7805ad9225" cx="89.81" cy="131.57" r="5.43"/><circle class="a6d0ac27-1509-4e96-9c1e-0f7805ad9225" cx="176.05" cy="194.63" r="5.43"/></svg>