<svg id="bc03889f-6a71-4aad-8408-d96ef73d427e" data-name="图层 1" xmlns="http://www.w3.org/2000/svg" viewBox="0 0 380 280"><defs><style>.a6e2222b-640c-44e4-adfd-9fb4e904a012,.bb02f776-cb12-43f1-950e-8fa27d976d67{fill:#3ab2c5;}.bb02f776-cb12-43f1-950e-8fa27d976d67{fill-rule:evenodd;}</style></defs><title>lms-logo</title><path class="a6e2222b-640c-44e4-adfd-9fb4e904a012" d="M110.56,153l14.32,14.32H93.31V108.05H108v44.58h2.23Zm24-.35V167.3h-2.93l-14.68-14.67Z"/><path class="a6e2222b-640c-44e4-adfd-9fb4e904a012" d="M200.63,108.05V167.3H186V141.2l-15,15-14.95-15h0l-14.67-14.67V108.05h2.31L171,135.37l27.32-27.32Zm-59.25,25.19,14.67,14.67V167.3H141.38Z"/><path class="a6e2222b-640c-44e4-adfd-9fb4e904a012" d="M269.64,143.54a18.48,18.48,0,0,1-17.72,23.76H211.16V152.63h40.76a3.81,3.81,0,1,0,0-7.62H229.64a18.49,18.49,0,0,1-5.34-36.18c.43-.12.87-.24,1.29-.33l.63-.14,14.37,14.36h-11a3.81,3.81,0,1,0,0,7.62h22.91l.55,0h.53l.59.06h0l.36.05h.05l.56.09.22,0,.46.1h.05l.57.14h.11l.14.06.14,0h0l.47.14h0l.92.32.1,0,.59.24.05,0,.7.31h0l.22.11h0l.4.2h0c.27.14.53.28.77.43h0l.4.25.53.34,0,0c.19.12.37.25.53.37l.08.06c.36.26.71.54,1,.82v0l.4.35.26.24,0,0,.09.08.14.15a.8.8,0,0,1,.13.13h0l.22.21v0c.26.27.52.56.77.85l.16.18.16.19.11.15,0,0,.17.22,0,.06.06.08.31.42,0,0,.2.3,0,0,.17.26.11.17a16.31,16.31,0,0,1,.83,1.47l.06.11c.16.33.32.67.47,1l.07.18a.36.36,0,0,1,0,.09h0l.26.73c0,.05,0,.09,0,.13h0a1.46,1.46,0,0,1,.07.19l.22.64Zm.76-35.49v14.67H247.29l-14.67-14.67Z"/><g id="bc478d99-d12b-43c9-86b4-dab1db0d5f79" data-name="g15"><path id="b363bb2c-4527-44c6-a1ff-9f738436f8fa" data-name="path11" class="bb02f776-cb12-43f1-950e-8fa27d976d67" d="M145.16,113.48C197,81,245.05,64.2,252.38,76s-28.78,47.62-80.67,80.1S71.82,205.33,64.49,193.58,93.27,146,145.16,113.48Zm.44,1.15c-47.2,29.54-79.81,62.55-72.84,73.72s50.87-3.73,98.07-33.27,79.8-62.55,72.84-73.72S192.79,85.09,145.6,114.63Z"/><path id="b6501fd9-d073-47bf-9730-8d2b96f568b0" data-name="circle13" class="bb02f776-cb12-43f1-950e-8fa27d976d67" d="M134.53,179.32a4.69,4.69,0,0,1-4.69,4.69h0a4.69,4.69,0,0,1-4.69-4.69h0a4.69,4.69,0,0,1,9.38,0Z"/></g><path class="a6e2222b-640c-44e4-adfd-9fb4e904a012" d="M151.19,191.24c-.68-.35-1.4-.7-2.15-1.06s-1.52-.71-2.29-1.05a9.16,9.16,0,0,1-1.17.64c-.44.2-.92.39-1.45.57s-1.13.37-1.78.54-1.36.33-2.14.5l-.28-1.1a31.42,31.42,0,0,0,3.34-.74,11.28,11.28,0,0,0,2.33-.93l-1.91-.82c-.61-.26-1.18-.49-1.7-.69.2-.29.4-.62.61-1l.62-1.11h-3v-1h3.49c.21-.41.4-.82.57-1.22l.48-1.12,1.12.38-.41.94c-.15.33-.3.67-.47,1h7.15v1h-2.46a11.18,11.18,0,0,1-.83,1.87,6.27,6.27,0,0,1-1.16,1.46l2,.93q1,.47,2.07,1Zm-10.29-11h5.16l-.39-.82-.41-.8,1.15-.24.19.42.25.51.25.5c.08.17.16.31.22.43h4.28v2.46h-1.07v-1.43H142v1.41H140.9Zm2.74,6.32,1.43.6,1.58.69a5.55,5.55,0,0,0,1.07-1.26,8.88,8.88,0,0,0,.73-1.61h-3.92C144.22,185.62,143.93,186.15,143.64,186.6Z"/><path class="a6e2222b-640c-44e4-adfd-9fb4e904a012" d="M160.39,187.38v2.25h5.05v1H154.18v-1h5.06v-2.25h-3.87v-1h3.87v-2.05h-3.49v-.8c-.56.36-1.16.7-1.77,1l-.55-1a20.39,20.39,0,0,0,2-1.12,15.25,15.25,0,0,0,1.63-1.19,11.61,11.61,0,0,0,1.33-1.28,12.87,12.87,0,0,0,1.08-1.44l1.26.34-.34.44a18,18,0,0,0,2.39,2.19,20.42,20.42,0,0,0,3.4,2.08l-.56,1c-.31-.16-.61-.31-.9-.48s-.57-.33-.83-.5v.77h-3.5v2.05h3.86v1Zm-.56-7.47a24.12,24.12,0,0,1-1.8,1.83,14.8,14.8,0,0,1-1.94,1.52h7.41a16.19,16.19,0,0,1-2-1.58A17.48,17.48,0,0,1,159.83,179.91Z"/><path class="a6e2222b-640c-44e4-adfd-9fb4e904a012" d="M168.06,187.21a8.76,8.76,0,0,1,.74.52q.4.32.81.69l.77.77a5.24,5.24,0,0,1,.59.76l-1,.88c-.16-.28-.34-.57-.54-.86s-.43-.58-.65-.85-.46-.53-.7-.77-.47-.43-.68-.6Z"/><path class="a6e2222b-640c-44e4-adfd-9fb4e904a012" d="M179,186.67l-.56-.73c-.21-.29-.4-.54-.58-.76v5.91h-.91v-5.21a14.53,14.53,0,0,1-.67,1.5,15.2,15.2,0,0,1-.78,1.37l-.63-.89a11.21,11.21,0,0,0,1.15-2,14.17,14.17,0,0,0,.83-2.34h-1.54v-1h1.64v-1.94l-.8.12-.71.1-.08-1,.95-.14,1.07-.19,1.08-.23c.36-.08.68-.16,1-.25l.13,1c-.24.07-.5.14-.8.2l-.91.19v2.1h1.64v1h-1.64v1.26l.45-.43c.09.1.19.23.3.37l.37.46.37.48.33.43Zm1.39,1.08a12,12,0,0,1-.5,1.5c-.2.51-.41,1-.62,1.41l-.85-.38a11.61,11.61,0,0,0,.66-1.37,14.44,14.44,0,0,0,.49-1.44Zm2.26-9c-.09.17-.17.34-.25.5a3.72,3.72,0,0,1-.27.48h3.44v.82L184.28,182h2.12v4.83h-6.63V186h5.69v-1.1H179.9V184h5.56v-1.12h-5.37v-.59l-.23.22-.69-.69a10.05,10.05,0,0,0,1.42-1.62,12.33,12.33,0,0,0,1.08-1.81Zm-1.08,1.86c-.18.25-.37.5-.56.73s-.4.47-.62.7h2.74l1.23-1.43Zm4,8.62a6.73,6.73,0,0,1-.24.72,2.11,2.11,0,0,1-.33.55,1.27,1.27,0,0,1-.48.34,1.72,1.72,0,0,1-.72.13h-1.47a1.64,1.64,0,0,1-1.08-.31,1.39,1.39,0,0,1-.33-1.06v-2h.93v1.86a.69.69,0,0,0,.15.52.88.88,0,0,0,.55.15h1.19a.68.68,0,0,0,.59-.26,2.6,2.6,0,0,0,.31-.9Zm-2.27-.08c-.06-.12-.12-.27-.2-.44s-.16-.37-.25-.56-.17-.37-.25-.53l-.19-.38.72-.35.89,1.92Zm3.38,1.45-.27-.66c-.11-.26-.21-.52-.32-.79s-.22-.54-.33-.79l-.29-.67.82-.33c.08.21.18.44.29.7l.33.8c.12.26.23.52.33.77s.2.46.28.64Z"/><path class="a6e2222b-640c-44e4-adfd-9fb4e904a012" d="M192.22,185.22a16.86,16.86,0,0,1-.34,2.22,4,4,0,0,0,1.16,1.43,3.79,3.79,0,0,0,1.62.67V184h-5v-1h10.69v1h-4.65v2.19h4v1h-4v2.5h5.34l-.21,1h-5a6.21,6.21,0,0,1-2.56-.51,4.31,4.31,0,0,1-1.79-1.56,6.84,6.84,0,0,1-.78,1.37,10.63,10.63,0,0,1-1.13,1.29l-.86-.72a9,9,0,0,0,1.05-1.15,6,6,0,0,0,.71-1.2,7,7,0,0,0,.43-1.38,12.56,12.56,0,0,0,.21-1.69Zm-2.6-5.23h5.18l-.64-1.44,1.11-.19.34.8c.13.31.24.58.35.83h4.49v2.21h-1V181h-8.72v1.22h-1.07Z"/><path class="a6e2222b-640c-44e4-adfd-9fb4e904a012" d="M203.42,187.21a7.4,7.4,0,0,1,.74.52q.41.32.81.69l.77.77a5.24,5.24,0,0,1,.59.76l-1,.88c-.16-.28-.34-.57-.54-.86s-.42-.58-.65-.85-.46-.53-.7-.77a7.14,7.14,0,0,0-.68-.6Z"/><path class="a6e2222b-640c-44e4-adfd-9fb4e904a012" d="M210.8,180.7v-.85h5.56c-.09-.21-.19-.42-.3-.64s-.21-.42-.29-.6l1.14-.25.32.71.35.78h5v.85Zm.75,4.5h10.36v4.3a1.74,1.74,0,0,1-.36,1.22,1.54,1.54,0,0,1-1.28.31l-.83-.06-.2-1,.66.11c.38.06.63,0,.75-.14a1.15,1.15,0,0,0,.17-.69V186h-8.21v5h-1.06Zm9.21-3.58v2.63h-8.09v-2.63Zm-7,1.84h5.93v-1.05h-5.93Zm5.64,3.5v2.72H214V187Zm-4.33,1.94h3.3v-1.13h-3.3Z"/><path class="a6e2222b-640c-44e4-adfd-9fb4e904a012" d="M225.28,180.92c0,.34-.06.75-.1,1.21l-.12,1.39q-.08.71-.15,1.35c0,.43-.09.78-.13,1.06l-.94-.13c.06-.32.11-.69.16-1.1s.09-.85.13-1.29.08-.88.12-1.33.06-.86.08-1.23ZM228,183l-.25-.44-.3-.49c-.1-.17-.21-.33-.31-.48s-.19-.29-.27-.4v9.91h-1V178.59h1v2.55l.71-.55a3.76,3.76,0,0,0,.24.38c.1.15.19.3.29.47l.31.48c.11.16.2.31.3.43.14-.49.27-1,.38-1.46s.2-1,.27-1.45l1,.14c0,.32-.1.63-.15.92s-.12.59-.19.88h1.61v-2.76h1.08v2.76h3.07v1.11H232.7v2.76h2.73v1.07H232.7v3.17H236v1h-8.06v-1h3.69v-3.17h-3v-1.07h3v-2.76h-1.9c-.12.39-.25.77-.38,1.15s-.27.75-.43,1.13l-1-.33q.21-.47.39-1c.13-.34.24-.68.35-1Z"/><path class="a6e2222b-640c-44e4-adfd-9fb4e904a012" d="M242.94,183.06a3.35,3.35,0,0,1-.22-.34,3,3,0,0,0-.25-.41l-.88,0-1.13.06-1.08.07-.77.05-.42.05-.45.06-.25-1a1.16,1.16,0,0,0,.3-.1l.17-.11a5.71,5.71,0,0,0,.48-.53l.57-.74c.19-.27.38-.55.56-.84s.33-.57.46-.84l1,.47c-.13.23-.28.48-.44.74s-.33.51-.5.75-.34.47-.51.67a6.42,6.42,0,0,1-.44.5l2.77-.15-.84-1.28.79-.54.43.62.52.76.53.79.46.69Zm-4.83.4H243v6.26a1.48,1.48,0,0,1-.31,1.06,1.38,1.38,0,0,1-1.12.25l-.44-.05-.21-1,.51.1c.26.05.42,0,.47-.11a1.46,1.46,0,0,0,.08-.54v-1h-2.89v2.67h-1Zm1,2H242v-1.1h-2.89Zm0,2H242v-1.15h-2.89Zm10.32-4.94c-.09.31-.19.58-.28.82a2.5,2.5,0,0,1-.36.58,1.48,1.48,0,0,1-.49.37,1.78,1.78,0,0,1-.69.12h-2.28a1.16,1.16,0,0,1-.9-.31,1.52,1.52,0,0,1-.29-1.05v-4.42h1v2.21c.27-.12.56-.24.85-.38l.87-.42.8-.41c.24-.13.45-.25.61-.36l.48.94c-.19.12-.43.25-.72.4l-.94.46c-.33.16-.67.31-1,.45l-.94.4v.82a.84.84,0,0,0,.14.57.67.67,0,0,0,.5.14h1.47a1.11,1.11,0,0,0,.43-.07.65.65,0,0,0,.28-.24,1.19,1.19,0,0,0,.2-.39q.09-.24.18-.57Zm.07,6.19a7,7,0,0,1-.31.86,2.18,2.18,0,0,1-.38.61,1.55,1.55,0,0,1-.53.39,2,2,0,0,1-.73.13h-2.12c-.85,0-1.27-.46-1.27-1.34v-4.5h1v2.16l.88-.4.88-.44.81-.45a6.74,6.74,0,0,0,.68-.42l.52.85-.81.47-1,.5-1,.48-1,.42v1a.72.72,0,0,0,.18.56.91.91,0,0,0,.59.15h1.29a.89.89,0,0,0,.78-.31,3.18,3.18,0,0,0,.43-1.08Z"/><path class="a6e2222b-640c-44e4-adfd-9fb4e904a012" d="M197.23,206.19a2.77,2.77,0,0,0,.71,0,.92.92,0,0,0,.45-.16.75.75,0,0,0,.25-.36,2.44,2.44,0,0,0,.13-.56,5.5,5.5,0,0,0,.09-.56c0-.25.06-.51.1-.78s.06-.53.08-.76.05-.41.06-.52h-1.63a7.79,7.79,0,0,1-.6,1.6,6.72,6.72,0,0,1-.92,1.35,9,9,0,0,1-1.31,1.2,14.26,14.26,0,0,1-1.77,1.11l-.66-.83a13.52,13.52,0,0,0,1.61-.93,6.94,6.94,0,0,0,1.18-1,5.73,5.73,0,0,0,.83-1.14,6.87,6.87,0,0,0,.56-1.37h-1.72a7.73,7.73,0,0,1-.82,1.34,6.94,6.94,0,0,1-1.1,1.14,9.79,9.79,0,0,1-1.46,1,19.91,19.91,0,0,1-1.9.93l-.54-.85a13.16,13.16,0,0,0,1.71-.77,9.89,9.89,0,0,0,1.31-.84,6.05,6.05,0,0,0,1.65-1.94h-1.84a13.79,13.79,0,0,1-2.05,1.79l-.63-.79a8.61,8.61,0,0,0,2.92-3.07H191v-4.89h8.42v4.89h-7.08l.64.32a7.74,7.74,0,0,1-.54.82h7.8s0,.15,0,.35,0,.43-.07.7-.05.57-.08.88-.06.61-.08.89-.06.52-.08.73,0,.34-.05.4a2.82,2.82,0,0,1-.21.8,1.45,1.45,0,0,1-.39.54,1.57,1.57,0,0,1-.64.29,4,4,0,0,1-1,.05l-.93-.05-.2-1ZM192,197.58h6.32v-1.16H192Zm6.32,1.94V198.4H192v1.12Z"/><path class="a6e2222b-640c-44e4-adfd-9fb4e904a012" d="M205,197.57h1.58v1H205v2.13l1.48-.59,0,.55,0,.53-.72.3-.84.34V206a1.68,1.68,0,0,1-.32,1.18,1.44,1.44,0,0,1-1.18.27l-.61,0-.21-1.17.51.11c.3,0,.5,0,.59-.11a.93.93,0,0,0,.14-.6v-3.35l-.95.36-.75.27-.2-1.08.85-.28,1-.4v-2.54h-1.61v-1H204V195H205Zm3.24.43v2.55c0,.9,0,1.68-.08,2.33a9,9,0,0,1-.34,1.77,7.26,7.26,0,0,1-.67,1.54,16.14,16.14,0,0,1-1.08,1.6l-.94-.64c.29-.35.54-.67.76-1a6.86,6.86,0,0,0,.54-.87,4.83,4.83,0,0,0,.37-.88,7,7,0,0,0,.23-1c.05-.36.09-.77.11-1.23s0-1,0-1.56V197h3.22c-.06-.14-.12-.3-.2-.48l-.21-.55c-.08-.18-.15-.36-.22-.53s-.13-.3-.18-.41l1.07-.19.86,2.13-.25,0h2.8v1Z"/><path class="a6e2222b-640c-44e4-adfd-9fb4e904a012" d="M222,206.4l-.49.19-.84.33-.89.35-.62.23-.51.24-.4-.82a.83.83,0,0,0,.27-.24.37.37,0,0,0,.05-.16V203.2h-1.4c0,.44-.1.84-.17,1.21s-.17.72-.28,1.07a9.82,9.82,0,0,1-.43,1c-.17.34-.36.71-.58,1.1l-1-.5c.22-.36.41-.69.57-1a7.16,7.16,0,0,0,.41-.95c.1-.32.19-.65.26-1a11.27,11.27,0,0,0,.17-1.15c0-.42.06-.89.08-1.4s0-1.1,0-1.76v-4.26h9.94v3.06h-8.92v1.69c0,.74,0,1.4,0,2h2.54V201h-2.07v-.87h2.07V199h1v1.11h2.43V199h1v1.11h2.22V201h-2.22v1.33H227v.89h-1.62l.61.64c-.31.23-.64.47-1,.71s-.71.49-1.07.73a10.1,10.1,0,0,0,3.35,1.15l-.41.95a11,11,0,0,1-3.73-1.52,6.54,6.54,0,0,1-2.27-2.66h-1.22v3.24l.51-.2.69-.26.65-.25a3.42,3.42,0,0,0,.43-.17Zm-4.72-8.61h7.88v-1.32h-7.88Zm3.48,4.52h2.43V201H220.8Zm2.37,2.45a25.71,25.71,0,0,0,2.18-1.56h-3.46A5.74,5.74,0,0,0,223.17,204.76Z"/><path class="a6e2222b-640c-44e4-adfd-9fb4e904a012" d="M228.91,197.07h1.48c.1-.34.19-.72.28-1.12s.16-.77.21-1.08l1.15.18c-.05.27-.12.59-.21,1s-.18.73-.27,1h2.13v2.45a10,10,0,0,0,.66-1.16c.2-.41.38-.82.54-1.24s.31-.84.44-1.24.22-.78.29-1.13l1.06.27c-.08.32-.17.66-.28,1s-.22.71-.34,1.07h3.85l-.29,8.48a1.91,1.91,0,0,1-.47,1.36,1.94,1.94,0,0,1-1.54.36l-.9-.05-.22-1.14.8.1a3.08,3.08,0,0,0,.61,0,.78.78,0,0,0,.39-.17.74.74,0,0,0,.21-.38,3.09,3.09,0,0,0,.07-.6c0-.1,0-.33,0-.67s0-.75,0-1.23,0-1,0-1.5,0-1,0-1.51,0-.89,0-1.24,0-.59,0-.7h-3.16c-.16.36-.32.72-.5,1.07a10.7,10.7,0,0,1-.58,1l-.85-.52v7.15H230v.47h-1.07Zm1.07,4.28h2.65v-3.17H230Zm2.65,4.51v-3.41H230v3.41Zm4-2.44c-.14-.22-.29-.47-.45-.74s-.33-.55-.51-.83-.34-.55-.5-.81l-.44-.67.83-.62.46.7.53.83.53.85.48.76Z"/><path class="a6e2222b-640c-44e4-adfd-9fb4e904a012" d="M244.74,199c-.11.27-.23.56-.37.86s-.3.59-.46.88v6.74h-1v-5.18c-.18.26-.36.51-.55.75l-.55.67-.46-1a9.72,9.72,0,0,0,.72-.88c.23-.33.46-.68.69-1s.43-.75.62-1.13a11.76,11.76,0,0,0,.5-1.1Zm.13-3.29c-.14.28-.3.59-.5.92s-.4.67-.63,1-.46.66-.7,1a9.72,9.72,0,0,1-.72.88l-.73-.68c.22-.25.45-.52.69-.83s.45-.63.67-.95.41-.65.59-1a9.47,9.47,0,0,0,.46-.88Zm-1,11.22a5.84,5.84,0,0,0,.66-.64,2.83,2.83,0,0,0,.4-.62,2.46,2.46,0,0,0,.19-.71,8.14,8.14,0,0,0,.05-.93v-1.46h3.31v2.41l.88-.84.28.82a3,3,0,0,0-.25.2l-.38.34-.4.36-.3.25-.18.15a1.8,1.8,0,0,0-.21.19l-.63-.57a.65.65,0,0,0,.21-.28.75.75,0,0,0,0-.2v-1.9h-1.43v.72a6.7,6.7,0,0,1-.06.95,2.82,2.82,0,0,1-.2.77,3.36,3.36,0,0,1-.42.72,8.6,8.6,0,0,1-.69.8Zm.67-5.51v-.91h4.54l-.22-.35c.17-.31.34-.68.52-1.1s.33-.86.48-1.31.28-.9.39-1.35.19-.88.25-1.27l.93.13c-.06.36-.13.73-.21,1.1s-.19.74-.3,1.11h2.81v1h-.66a23.66,23.66,0,0,1-.42,3.12,11.94,11.94,0,0,1-.78,2.43,8.6,8.6,0,0,0,1,1.47,13.93,13.93,0,0,0,1.23,1.34l-.73.82c-.42-.44-.8-.88-1.13-1.29a10.6,10.6,0,0,1-.9-1.32,10.7,10.7,0,0,1-1,1.35c-.38.43-.82.89-1.31,1.37l-.74-.73a15.71,15.71,0,0,0,1.47-1.49,9.45,9.45,0,0,0,1.06-1.55,10.8,10.8,0,0,1-.56-1.69,19.85,19.85,0,0,1-.35-2c-.08.13-.15.27-.21.39s-.13.25-.2.37l-.36-.53v.9Zm4.58-2h-4.25v-3.17h.86v2.25h.86V195h.82v3.37h.86v-2.25h.85Zm2.2,3.42a11.58,11.58,0,0,0,.54-2c.13-.7.23-1.49.31-2.35h-1.56l0,.09,0,.09a15.77,15.77,0,0,0,.27,2.25A12.7,12.7,0,0,0,251.36,202.75Z"/><path class="a6e2222b-640c-44e4-adfd-9fb4e904a012" d="M258.52,206.41c.34.05.55,0,.64-.1a1,1,0,0,0,.14-.58v-2.56h-2c0,.44-.07.85-.12,1.25a7.93,7.93,0,0,1-.22,1.12,7.25,7.25,0,0,1-.36,1.05,7.39,7.39,0,0,1-.53,1l-.92-.48a8.29,8.29,0,0,0,.61-1,4.62,4.62,0,0,0,.37-1.14,12.21,12.21,0,0,0,.19-1.64c0-.65,0-1.5,0-2.53v-5.14h3.87v10.37a1.58,1.58,0,0,1-.3,1.08,1.34,1.34,0,0,1-1.15.27l-.63-.06-.2-1Zm-1.15-5.17v.5c0,.16,0,.32,0,.48h1.94v-2.29h-1.93Zm0-2.25h1.93v-2.28h-1.93Zm3.83-3.31h5.62c0,.06,0,.18,0,.38s0,.42,0,.66l0,.7c0,.24,0,.41,0,.53a3.21,3.21,0,0,1-.11.71,1,1,0,0,1-.27.47,1.08,1.08,0,0,1-.49.24,2.56,2.56,0,0,1-.76,0l-1-.07-.2-1,.83.11a.9.9,0,0,0,.75-.12,1,1,0,0,0,.24-.62,1.91,1.91,0,0,1,0-.2c0-.08,0-.17,0-.27a2.64,2.64,0,0,1,0-.28v-.24h-3.6v3.59H267v.93a9.64,9.64,0,0,1-.64,1.83,8.65,8.65,0,0,1-1.07,1.66,8.22,8.22,0,0,0,1.12,1,16.41,16.41,0,0,0,1.41.94l-.61.86a15,15,0,0,1-1.44-1,11.46,11.46,0,0,1-1.13-1,16.58,16.58,0,0,1-2.23,1.79l-.23-.27v.63h-1Zm2.79,9a7.74,7.74,0,0,1-.86-1.47,11.16,11.16,0,0,1-.59-1.69l.76-.27h-1.14v4.88a9.66,9.66,0,0,0,1-.71C263.45,205.15,263.73,204.91,264,204.66Zm-.61-3.43a8.51,8.51,0,0,0,1.24,2.72,9,9,0,0,0,.86-1.32,7.35,7.35,0,0,0,.53-1.4Z"/><path class="a6e2222b-640c-44e4-adfd-9fb4e904a012" d="M281.32,202a35.26,35.26,0,0,1-3.44-.82,16.46,16.46,0,0,1-2.6-1,24.36,24.36,0,0,1-2.73,1c-1,.32-2.11.62-3.36.91l-.31-1a29.12,29.12,0,0,0,5.3-1.57,8.49,8.49,0,0,1-1.13-.84,11,11,0,0,1-1-1,14.79,14.79,0,0,1-2.13,1.86l-.59-.73c.37-.29.74-.59,1.1-.93a14.15,14.15,0,0,0,1-1,13.33,13.33,0,0,0,.86-1.06,8,8,0,0,0,.65-1l1.06.3c-.1.18-.21.36-.32.53s-.24.35-.37.52h6.5v.87a14.73,14.73,0,0,1-1.58,1.38,16.09,16.09,0,0,1-1.83,1.2,20.39,20.39,0,0,0,2.27.72c.85.22,1.82.43,2.93.63Zm-4.58,4.42a2.63,2.63,0,0,0,.69,0,1.09,1.09,0,0,0,.45-.17.88.88,0,0,0,.26-.34,2,2,0,0,0,.13-.52c0-.11,0-.24.06-.41l.06-.51c0-.17,0-.33.05-.49a2.9,2.9,0,0,1,.05-.39h-4.1a5.21,5.21,0,0,1-.53,1.27,3.92,3.92,0,0,1-.9,1,8,8,0,0,1-1.36.92c-.53.29-1.16.6-1.9.92l-.59-.9c.65-.25,1.21-.48,1.67-.71a6.68,6.68,0,0,0,1.2-.73,3.58,3.58,0,0,0,.79-.82,4.06,4.06,0,0,0,.48-1h-3.18v-1h3.39v0a.07.07,0,0,0,0,0c0-.29.08-.56.11-.82a4.69,4.69,0,0,0,0-.52l1.12,0c0,.1,0,.28-.07.54s-.06.54-.11.85h5.1c0,.08,0,.25,0,.54s-.06.59-.09.93-.06.66-.1,1-.06.56-.08.71a3.3,3.3,0,0,1-.21.71,1.28,1.28,0,0,1-.39.52,1.65,1.65,0,0,1-.67.3,3.72,3.72,0,0,1-1,.06l-1.17-.07-.19-1Zm-4-9.35a8.46,8.46,0,0,0,1.12,1.12,7.64,7.64,0,0,0,1.36.9,11.26,11.26,0,0,0,2.94-2Z"/><path class="a6e2222b-640c-44e4-adfd-9fb4e904a012" d="M285.3,201v6.47h-1v-6.18a15.47,15.47,0,0,1-.63,1.47,13.29,13.29,0,0,1-.79,1.43l-.61-.89a15.94,15.94,0,0,0,1.12-2.19,24.09,24.09,0,0,0,.87-2.46h-1.56v-1h1.6V195h1v2.62h1.43v1H285.3v1.71l.45-.35c.09.12.18.26.29.43s.23.36.34.55.24.38.35.58l.31.5-.78.55Zm1.81,6.09V195.72h7.48v1.05h-6.44v9.29h6.55v1Zm1.52-2.34v-1H291v-2h-2v-1h2V199h-2.21v-1h5.46v1H292v1.79h2v1h-2v2h2.42v1Z"/><path class="a6e2222b-640c-44e4-adfd-9fb4e904a012" d="M300.15,200a.77.77,0,0,0,.7-.13,1,1,0,0,0,.22-.65l.08-1.9h-1.84a8.18,8.18,0,0,1-.24,1.32,5.16,5.16,0,0,1-.45,1.11,5.32,5.32,0,0,1-.74,1,9.13,9.13,0,0,1-1.06.93l-.74-.72a9,9,0,0,0,1-.82,3.83,3.83,0,0,0,.66-.82,3.64,3.64,0,0,0,.4-.9,6.3,6.3,0,0,0,.19-1.09h-1.7v-1h1.74c0-.13,0-.28,0-.43s0-.3,0-.44,0-.26,0-.36,0-.19,0-.24h1c0,.05,0,.13,0,.24s0,.24,0,.37,0,.28,0,.43,0,.3,0,.43h2.82c0,.08,0,.27,0,.57s0,.64-.05,1,0,.7-.05,1,0,.54,0,.65a1.78,1.78,0,0,1-.39,1.17,1.39,1.39,0,0,1-1.15.3l-.72-.07-.18-1Zm1.7,4.15a10.38,10.38,0,0,1-2.26,1.6,25.58,25.58,0,0,1-3,1.37l-.46-1.08a20.31,20.31,0,0,0,3.16-1.26,10.1,10.1,0,0,0,2.16-1.47h-4.79v-.92h5.24v-1.18h1v1.18h5.22v.92h-4.95c.33.28.68.55,1,.8a13.78,13.78,0,0,0,1.21.71c.44.22.92.44,1.45.65a16.65,16.65,0,0,0,1.74.61l-.46,1c-.6-.22-1.14-.43-1.63-.65s-1-.44-1.38-.66a11.13,11.13,0,0,1-1.18-.7,9.36,9.36,0,0,1-1.06-.82v3.26h-1Zm5.71-8.31v4.75h-4.43v-4.75Zm-3.44,3.75h2.46v-2.74h-2.46Z"/></svg>